<svg xmlns="http://www.w3.org/2000/svg" version="1.1" xmlns:xlink="http://www.w3.org/1999/xlink" xmlns:svgjs="http://svgjs.dev/svgjs" width="2000" height="1500" viewBox="0 0 2000 1500"><rect width="2000" height="1500" fill="#f8f8f8"></rect><g transform="matrix(0.75,0,0,0.75,249.67638483965015,0.05154664723022506)"><svg viewBox="0 0 343 343" data-background-color="#f8f8f8" preserveAspectRatio="xMidYMid meet" height="1999" width="2000" xmlns="http://www.w3.org/2000/svg" xmlns:xlink="http://www.w3.org/1999/xlink"><g id="tight-bounds" transform="matrix(1,0,0,1,0.07400000000001228,0.07400000000001228)"><svg viewBox="0 0 342.8515585177538 342.8515585177538" height="342.8515585177538" width="342.8515585177538"><g><svg></svg></g><g><svg viewBox="0 0 342.8515585177538 342.8515585177538" height="342.8515585177538" width="342.8515585177538"><g><path d="M0 171.426c0-94.676 76.75-171.426 171.426-171.426 94.676 0 171.426 76.75 171.426 171.426 0 94.676-76.75 171.426-171.426 171.426-94.676 0-171.426-76.75-171.426-171.426zM171.426 339.28c92.703 0 167.854-75.151 167.854-167.854 0-92.703-75.151-167.854-167.854-167.854-92.703 0-167.854 75.151-167.854 167.854 0 92.703 75.151 167.854 167.854 167.854z" data-fill-palette-color="tertiary" fill="#4d0404" stroke="transparent"></path><ellipse rx="164.56874808852183" ry="164.56874808852183" cx="171.4257792588769" cy="171.4257792588769" fill="#4d0404" stroke="transparent" stroke-width="0" fill-opacity="1" data-fill-palette-color="tertiary"></ellipse></g><g transform="matrix(1,0,0,1,64.84655864529836,88.6260110970619)"><svg viewBox="0 0 213.15844122715708 165.59953632363" height="165.59953632363" width="213.15844122715708"><g><svg viewBox="0 0 213.15844122715708 165.59953632363" height="165.59953632363" width="213.15844122715708"><g><svg viewBox="0 0 213.15844122715708 165.59953632363" height="165.59953632363" width="213.15844122715708"><g transform="matrix(1,0,0,1,0,100.00390835006966)"><svg viewBox="0 0 213.15844122715708 65.59562797356034" height="65.59562797356034" width="213.15844122715708"><g id="textblocktransform"><svg viewBox="0 0 213.15844122715708 65.59562797356034" height="65.59562797356034" width="213.15844122715708" id="textblock"><g><svg viewBox="0 0 213.15844122715708 39.60906864996554" height="39.60906864996554" width="213.15844122715708"><g transform="matrix(1,0,0,1,0,0)"><svg width="213.15844122715708" viewBox="1.6944445555599998 -37.8 207.9764645353491 38.65" height="39.60906864996554" data-palette-color="#efe5e5"><path d="M11.1-15.75L11.1-2.5 14.95-1.5Q15.1-0.55 14.7 0.25L14.7 0.25Q13.35 0.15 11.68 0.08 10 0 8.6 0L8.6 0Q7.2 0 5.18 0.08 3.15 0.15 1.75 0.25L1.75 0.25Q1.6-0.7 1.85-1.5L1.85-1.5Q2.9-1.6 3.9-1.85 4.9-2.1 5.85-2.5L5.85-2.5 5.85-32.5 2-33.5Q1.85-34.45 2.25-35.25L2.25-35.25Q3.6-35.2 5.68-35.08 7.75-34.95 9.35-35L9.35-35 14.05-35.3Q20.5-35.65 24.28-33.05 28.05-30.45 28.05-25.6L28.05-25.6Q28.05-22.2 26.3-20.08 24.55-17.95 21.2-16.8L21.2-16.8 21.2-16.6Q21.55-16.4 21.83-15.9 22.1-15.4 22.3-15L22.3-15Q24.3-10.6 25.53-7.9 26.75-5.2 27.58-3.85 28.4-2.5 29.28-2.02 30.15-1.55 31.45-1.55L31.45-1.55 32.05-1.6Q32.3-1.2 32.35-0.8 32.4-0.4 32.35 0L32.35 0Q32.1 0.35 31.4 0.5 30.7 0.65 30.03 0.7 29.35 0.75 29.05 0.75L29.05 0.75Q25.75 0.75 23.6-1.85L23.6-1.85Q22.65-3 21.83-4.85 21-6.7 19.9-9.38 18.8-12.05 16.95-15.8L16.95-15.8Q15.3-15.65 13.6-15.65L13.6-15.65Q12.95-15.65 12.33-15.68 11.7-15.7 11.1-15.75L11.1-15.75ZM23.15-25.3L23.15-25.3Q23.15-27.85 22.03-29.55 20.9-31.25 19-32.13 17.1-33 14.75-33L14.75-33Q13.9-33 13-32.85 12.1-32.7 11.1-32.45L11.1-32.45 11.1-18.05Q11.9-17.85 12.65-17.78 13.4-17.7 14.1-17.7L14.1-17.7Q18.45-17.7 20.8-19.75 23.15-21.8 23.15-25.3ZM42.8-24.95L42.8-2.5 46.15-1.5Q46.3-0.55 45.9 0.25L45.9 0.25Q44.55 0.15 43.12 0.08 41.7 0 40.3 0L40.3 0Q38.9 0 37.25 0.08 35.6 0.15 34.2 0.25L34.2 0.25Q34.05-0.7 34.3-1.5L34.3-1.5Q35.25-1.75 36.17-1.95 37.1-2.15 37.8-2.5L37.8-2.5 37.8-22 33.65-22.4Q33.5-23.4 33.9-24.15L33.9-24.15Q35.7-24.4 37.52-24.75 39.35-25.1 40.9-25.5L40.9-25.5Q41.4-25.45 41.85-25.33 42.3-25.2 42.8-24.95L42.8-24.95ZM39.45-30.05L39.45-30.05Q38.6-30.05 37.9-30.6 37.2-31.15 36.8-31.95 36.4-32.75 36.4-33.45L36.4-33.45Q36.4-34.1 36.95-34.77 37.5-35.45 38.32-35.93 39.15-36.4 39.95-36.4L39.95-36.4Q40.85-36.4 41.55-35.83 42.25-35.25 42.62-34.48 43-33.7 43-33L43-33Q43-32.35 42.47-31.65 41.95-30.95 41.12-30.5 40.3-30.05 39.45-30.05ZM66.59-17.7L65.95-23Q65.2-23.35 64.12-23.53 63.05-23.7 62.2-23.7L62.2-23.7Q59.55-23.7 57.8-22.28 56.05-20.85 55.17-18.32 54.3-15.8 54.3-12.5L54.3-12.5Q54.3-8.75 55.32-6.4 56.35-4.05 58.07-2.95 59.8-1.85 61.9-1.85L61.9-1.85Q63.55-1.85 65.32-2.48 67.09-3.1 68.8-4.2L68.8-4.2Q69.2-3.95 69.4-3.63 69.59-3.3 69.7-2.9L69.7-2.9Q67.84-0.95 65.62-0.05 63.4 0.85 61.15 0.85L61.15 0.85Q58.05 0.85 55.25-0.7 52.45-2.25 50.7-5.25 48.95-8.25 48.95-12.5L48.95-12.5Q48.95-16.9 50.72-19.88 52.5-22.85 55.5-24.38 58.5-25.9 62.05-25.9L62.05-25.9Q63.95-25.9 65.9-25.53 67.84-25.15 69.8-24.3L69.8-24.3Q69.8-20.6 68.8-17.5L68.8-17.5Q68.59-17.45 68.4-17.45 68.2-17.45 68-17.45L68-17.45Q67.65-17.45 67.3-17.5 66.95-17.55 66.59-17.7L66.59-17.7ZM80.49-37.25L80.49-22.25 80.74-22.25Q82.99-24.3 85.12-25.15 87.24-26 88.94-26L88.94-26Q93.04-26 94.92-23.85 96.79-21.7 96.79-18.2L96.79-18.2 96.79-2.5 100.39-1.5Q100.54-0.55 100.14 0.25L100.14 0.25Q98.79 0.15 97.24 0.08 95.69 0 94.29 0L94.29 0Q92.89 0 91.24 0.08 89.59 0.15 88.19 0.25L88.19 0.25Q88.04-0.7 88.29-1.5L88.29-1.5Q89.19-1.7 90.09-1.93 90.99-2.15 91.79-2.5L91.79-2.5 91.79-17.45Q91.79-19.55 91.14-20.65 90.49-21.75 89.39-22.13 88.29-22.5 86.94-22.5L86.94-22.5Q85.34-22.5 83.62-21.7 81.89-20.9 80.74-19.6L80.74-19.6 80.74-2.5 84.09-1.5Q84.24-0.55 83.84 0.25L83.84 0.25Q82.49 0.15 81.07 0.08 79.64 0 78.24 0L78.24 0Q76.84 0 75.19 0.08 73.54 0.15 72.14 0.25L72.14 0.25Q71.99-0.7 72.24-1.5L72.24-1.5Q73.19-1.75 74.12-1.95 75.04-2.15 75.74-2.5L75.74-2.5 75.74-34.3 71.59-34.7Q71.44-35.7 71.84-36.45L71.84-36.45Q75.44-37 78.59-37.8L78.59-37.8Q79.09-37.75 79.54-37.63 79.99-37.5 80.49-37.25L80.49-37.25ZM122.79-25.05L122.64-21.65 122.69-21.6Q124.99-24 127.39-24.9 129.79-25.8 131.59-25.8L131.59-25.8Q134.04-25.8 135.74-24.73 137.44-23.65 138.14-21.6L138.14-21.6Q140.29-24 142.39-24.9 144.49-25.8 146.59-25.8L146.59-25.8Q149.84-25.8 151.71-23.95 153.59-22.1 153.59-18.55L153.59-18.55 153.64-2.5 157.14-1.5Q157.29-0.55 156.89 0.25L156.89 0.25Q155.54 0.15 154.04 0.08 152.54 0 151.14 0L151.14 0Q149.74 0 148.19 0.08 146.64 0.15 145.24 0.25L145.24 0.25Q145.09-0.7 145.34-1.5L145.34-1.5Q146.34-1.7 147.11-1.95 147.89-2.2 148.64-2.5L148.64-2.5 148.64-16.3Q148.64-19.7 147.59-20.95 146.54-22.2 144.24-22.2L144.24-22.2Q143.14-22.2 141.64-21.48 140.14-20.75 138.59-18.95L138.59-18.95 138.59-18.55 138.64-2.5 142.14-1.5Q142.29-0.55 141.89 0.25L141.89 0.25Q140.54 0.15 139.04 0.08 137.54 0 136.14 0L136.14 0Q134.74 0 133.19 0.08 131.64 0.15 130.24 0.25L130.24 0.25Q130.09-0.7 130.34-1.5L130.34-1.5Q131.34-1.7 132.11-1.95 132.89-2.2 133.64-2.5L133.64-2.5 133.64-16.3Q133.64-19.7 132.59-21 131.54-22.3 129.24-22.3L129.24-22.3Q128.04-22.3 126.41-21.58 124.79-20.85 123.04-19.3L123.04-19.3 123.04-2.5 126.39-1.5Q126.54-0.55 126.14 0.25L126.14 0.25Q124.79 0.15 123.36 0.08 121.94 0 120.54 0L120.54 0Q119.14 0 117.49 0.08 115.84 0.15 114.44 0.25L114.44 0.25Q114.29-0.7 114.54-1.5L114.54-1.5Q115.44-1.75 116.34-1.98 117.24-2.2 118.04-2.5L118.04-2.5 118.04-22 113.89-22.4Q113.74-23.4 114.14-24.15L114.14-24.15Q115.99-24.45 117.74-24.8 119.49-25.15 121.09-25.5L121.09-25.5Q121.94-25.45 122.79-25.05L122.79-25.05ZM166.19 0.85L166.19 0.85Q163.19 0.85 161.14-0.73 159.09-2.3 159.09-5.5L159.09-5.5Q159.09-8 160.31-9.6 161.54-11.2 163.61-12.08 165.69-12.95 168.24-13.25 170.79-13.55 173.44-13.5L173.44-13.5 173.49-17.9Q173.54-20.7 172.44-22.23 171.34-23.75 169.09-23.75L169.09-23.75Q167.84-23.75 166.69-23.58 165.54-23.4 164.39-23L164.39-23 163.74-17.7Q163.34-17.5 162.64-17.48 161.94-17.45 161.54-17.5L161.54-17.5Q161.09-19.15 160.79-20.8 160.49-22.45 160.54-24L160.54-24Q162.89-25.1 165.26-25.55 167.64-26 170.44-26L170.44-26Q173.24-26 174.96-25.1 176.69-24.2 177.51-22 178.34-19.8 178.34-15.85L178.34-15.85 178.34-2.45Q179.19-2.05 180.09-1.88 180.99-1.7 181.84-1.45L181.84-1.45Q181.99-0.5 181.59 0.3L181.59 0.3Q180.79 0.45 179.66 0.55 178.54 0.65 177.39 0.65L177.39 0.65Q175.74 0.65 174.54 0.35L174.54 0.35 173.84-2.25 173.64-2.25Q172.39-0.95 170.54-0.05 168.69 0.85 166.19 0.85ZM168.09-1.9L168.09-1.9Q169.49-1.9 171.09-2.78 172.69-3.65 173.44-4.75L173.44-4.75 173.44-11.5Q168.29-11.5 166.19-10.28 164.09-9.05 164.09-6L164.09-6Q164.09-3.95 165.19-2.93 166.29-1.9 168.09-1.9ZM191.83-37.25L191.83-2.5 195.68-1.5Q195.83-0.55 195.43 0.25L195.43 0.25Q194.08 0.15 192.41 0.08 190.73 0 189.33 0L189.33 0Q187.93 0 186.28 0.08 184.63 0.15 183.23 0.25L183.23 0.25Q183.08-0.7 183.33-1.5L183.33-1.5Q184.28-1.75 185.21-1.95 186.13-2.15 186.83-2.5L186.83-2.5 186.83-34.3 182.68-34.7Q182.53-35.7 182.93-36.45L182.93-36.45Q184.73-36.7 186.56-37.05 188.38-37.4 189.93-37.8L189.93-37.8Q190.43-37.75 190.88-37.63 191.33-37.5 191.83-37.25L191.83-37.25ZM205.78-37.25L205.78-2.5 209.63-1.5Q209.78-0.55 209.38 0.25L209.38 0.25Q208.03 0.15 206.36 0.08 204.68 0 203.28 0L203.28 0Q201.88 0 200.23 0.08 198.58 0.15 197.18 0.25L197.18 0.25Q197.03-0.7 197.28-1.5L197.28-1.5Q198.23-1.75 199.16-1.95 200.08-2.15 200.78-2.5L200.78-2.5 200.78-34.3 196.63-34.7Q196.48-35.7 196.88-36.45L196.88-36.45Q198.68-36.7 200.51-37.05 202.33-37.4 203.88-37.8L203.88-37.8Q204.38-37.75 204.83-37.63 205.28-37.5 205.78-37.25L205.78-37.25Z" opacity="1" transform="matrix(1,0,0,1,0,0)" fill="#efe5e5" class="wordmark-text-0" data-fill-palette-color="quaternary" id="text-0"></path></svg></g></svg></g><g transform="matrix(1,0,0,1,0,48.95981914057481)"><svg viewBox="0 0 213.15844122715708 16.63580883298553" height="16.63580883298553" width="213.15844122715708"><g transform="matrix(1,0,0,1,0,0)"><svg width="213.15844122715708" viewBox="3.1 -39.5 672.88 52.51" height="16.63580883298553" data-palette-color="#efe5e5"><path d="M12.11-35.01L12.11-35.01Q12.11-34.08 11.76-33.25 11.4-32.42 10.79-31.81 10.18-31.2 9.35-30.85 8.52-30.49 7.59-30.49L7.59-30.49Q6.67-30.49 5.85-30.85 5.03-31.2 4.42-31.81 3.81-32.42 3.45-33.25 3.1-34.08 3.1-35.01L3.1-35.01Q3.1-35.94 3.45-36.76 3.81-37.57 4.42-38.18 5.03-38.79 5.85-39.15 6.67-39.5 7.59-39.5L7.59-39.5Q8.52-39.5 9.35-39.15 10.18-38.79 10.79-38.18 11.4-37.57 11.76-36.76 12.11-35.94 12.11-35.01ZM11.74-28.17L11.74 0 3.47 0 3.47-28.17 11.74-28.17ZM42.74-24.93L42.74 0 34.46 0 34.46-24.93 29.33-24.93 29.33-28.2 34.46-28.2 34.46-38.57 42.74-38.57 42.74-28.2 51.28-28.2 51.28-24.93 42.74-24.93ZM92.65-9.01L92.65-9.01Q92.65-7.15 92.12-5.71 91.58-4.27 90.65-3.21 89.72-2.15 88.45-1.43 87.18-0.71 85.73-0.27 84.28 0.17 82.69 0.37 81.1 0.56 79.54 0.56L79.54 0.56Q77.44 0.56 75.83 0.29 74.22 0.02 72.75-0.57 71.29-1.17 69.84-2.12 68.38-3.08 66.6-4.44L66.6-4.44 71.41-8.37Q72.07-7.13 73.16-6.12 74.24-5.1 75.42-4.37 76.59-3.64 77.69-3.25 78.78-2.86 79.47-2.86L79.47-2.86Q80.03-2.86 80.74-2.89 81.45-2.93 82.18-3.04 82.91-3.15 83.62-3.37 84.33-3.59 84.88-3.97 85.43-4.35 85.76-4.92 86.08-5.49 86.08-6.3L86.08-6.3Q86.08-7.13 85.66-7.75 85.23-8.37 84.55-8.84 83.86-9.3 82.98-9.62 82.11-9.94 81.21-10.18 80.32-10.42 79.49-10.61 78.66-10.79 78.05-10.96L78.05-10.96Q76.93-11.28 75.68-11.61 74.44-11.94 73.22-12.37 72-12.79 70.89-13.38 69.78-13.96 68.93-14.78 68.09-15.6 67.59-16.71 67.09-17.82 67.09-19.31L67.09-19.31Q67.09-22.05 68.18-23.89 69.26-25.73 71.05-26.84 72.83-27.95 75.1-28.42 77.37-28.88 79.71-28.88L79.71-28.88Q81.32-28.88 83.11-28.55 84.89-28.22 86.57-27.58 88.26-26.93 89.72-26 91.19-25.07 92.16-23.88L92.16-23.88 87.35-19.92Q86.82-21.39 85.95-22.44 85.08-23.49 84.07-24.16 83.06-24.83 82-25.15 80.93-25.46 80.03-25.46L80.03-25.46Q79.15-25.46 78.05-25.39 76.95-25.32 75.99-24.98 75.03-24.63 74.35-23.94 73.68-23.24 73.68-22.02L73.68-22.02Q73.68-21.14 74.09-20.52 74.49-19.9 75.15-19.45 75.81-18.99 76.65-18.69 77.49-18.38 78.37-18.15 79.25-17.92 80.08-17.75 80.91-17.58 81.57-17.38L81.57-17.38Q82.69-17.07 83.95-16.74 85.21-16.41 86.43-15.98 87.65-15.55 88.78-14.98 89.92-14.4 90.77-13.57 91.63-12.74 92.14-11.63 92.65-10.52 92.65-9.01ZM182.57-16.46L182.57-16.46Q182.57-13.55 181.89-10.4 181.2-7.25 179.97-4.26 178.74-1.27 177 1.39 175.27 4.05 173.15 6.01L173.15 6.01 170.05 4.32Q170.75 3.05 171.34 1.46 171.93-0.12 172.41-1.88 172.9-3.64 173.27-5.49 173.63-7.35 173.89-9.19 174.15-11.04 174.27-12.77 174.39-14.5 174.39-16.02L174.39-16.02Q174.39-16.87 174.34-17.87 174.29-18.87 174.13-19.87 173.98-20.87 173.66-21.79 173.34-22.71 172.79-23.43 172.24-24.15 171.42-24.57 170.61-25 169.46-25L169.46-25Q168.34-25 167.54-24.4 166.75-23.8 166.19-22.85 165.63-21.9 165.3-20.7 164.97-19.51 164.8-18.3 164.63-17.09 164.56-15.99 164.5-14.89 164.5-14.14L164.5-14.14 164.5 0 156.28 0 156.28-13.13Q156.28-13.99 156.3-15.2 156.32-16.41 156.24-17.72 156.15-19.04 155.92-20.35 155.69-21.66 155.19-22.68 154.69-23.71 153.83-24.35 152.98-25 151.69-25L151.69-25Q150.59-25 149.84-24.39 149.1-23.78 148.6-22.81 148.1-21.85 147.82-20.64 147.54-19.43 147.4-18.23 147.27-17.02 147.24-15.93 147.22-14.84 147.22-14.14L147.22-14.14 147.22 0 138.94 0 138.94-28.2 142.12-28.2 145.14-21.63Q146.17-25.05 148.38-26.97 150.59-28.88 154.25-28.88L154.25-28.88Q157.55-28.88 159.72-27.51 161.89-26.15 163.14-23.07L163.14-23.07Q163.84-24.41 164.71-25.49 165.58-26.56 166.64-27.32 167.7-28.08 169-28.48 170.29-28.88 171.85-28.88L171.85-28.88Q174.73-28.88 176.77-27.94 178.81-27 180.1-25.34 181.4-23.68 181.98-21.4 182.57-19.12 182.57-16.46ZM229.92-28.2L229.92 0 221.67 0 221.67-3.37Q220.2-1.37 218.14-0.4 216.08 0.56 213.61 0.56L213.61 0.56Q210.39 0.56 207.85-0.59 205.31-1.73 203.55-3.72 201.8-5.71 200.87-8.4 199.94-11.08 199.94-14.16L199.94-14.16Q199.94-17.24 200.87-19.92 201.8-22.61 203.55-24.6 205.31-26.59 207.85-27.73 210.39-28.88 213.61-28.88L213.61-28.88Q215.25-28.88 216.73-28.39 218.2-27.91 219.44-27.01 220.67-26.12 221.61-24.87 222.55-23.61 223.09-22.07L223.09-22.07 226.75-28.2 229.92-28.2ZM221.62-14.16L221.62-14.16Q221.62-15.26 221.51-16.48 221.4-17.7 221.13-18.9 220.86-20.09 220.39-21.18 219.91-22.27 219.17-23.11 218.42-23.95 217.37-24.44 216.32-24.93 214.93-24.93L214.93-24.93Q213.54-24.93 212.51-24.43 211.49-23.93 210.76-23.08 210.02-22.24 209.55-21.14 209.07-20.04 208.8-18.85 208.53-17.65 208.42-16.44 208.31-15.23 208.31-14.16L208.31-14.16Q208.31-13.09 208.42-11.87 208.53-10.64 208.8-9.45 209.07-8.25 209.55-7.15 210.02-6.05 210.76-5.21 211.49-4.37 212.51-3.87 213.54-3.37 214.93-3.37L214.93-3.37Q216.2-3.37 217.19-3.89 218.18-4.42 218.92-5.3 219.67-6.18 220.18-7.3 220.69-8.42 221.01-9.62 221.33-10.82 221.47-12 221.62-13.18 221.62-14.16ZM258.52-9.47L258.52 0 250.27 0 250.27-38.57 258.52-38.57 258.52-13.26Q260.55-14.72 262.51-16.48 264.48-18.24 266.26-20.18 268.04-22.12 269.57-24.15 271.1-26.17 272.24-28.2L272.24-28.2 277.86-28.2Q276.15-25.32 273.81-22.45 271.46-19.58 268.7-16.97L268.7-16.97 277.96 0 268.85 0 262.28-11.77Q260.45-10.52 258.52-9.47L258.52-9.47ZM301.33-13.38L301.33-13.38Q302.85-13.04 304.36-12.84 305.87-12.65 307.41-12.65L307.41-12.65Q309.02-12.65 310.4-12.95 311.78-13.26 312.8-13.98 313.81-14.7 314.39-15.89 314.98-17.09 314.98-18.87L314.98-18.87Q314.98-20.31 314.59-21.51 314.2-22.71 313.43-23.56 312.66-24.41 311.54-24.89 310.42-25.37 308.93-25.37L308.93-25.37Q307.53-25.37 306.42-24.85 305.31-24.34 304.47-23.47 303.63-22.61 303.03-21.46 302.43-20.31 302.04-19.07 301.65-17.82 301.48-16.55 301.31-15.28 301.31-14.16L301.31-14.16Q301.31-13.96 301.31-13.77 301.31-13.57 301.33-13.38ZM321.67-18.95L321.67-18.95Q321.67-17.21 321.11-15.86 320.55-14.5 319.58-13.48 318.62-12.45 317.35-11.74 316.08-11.04 314.64-10.58 313.2-10.13 311.67-9.94 310.15-9.74 308.71-9.74L308.71-9.74Q306.88-9.74 305.09-10 303.31-10.25 301.58-10.82L301.58-10.82Q301.85-9.2 302.43-7.75 303.02-6.3 303.99-5.21 304.97-4.13 306.4-3.49 307.83-2.86 309.78-2.86L309.78-2.86Q311.07-2.86 312.25-3.25 313.42-3.64 314.39-4.35 315.37-5.05 316.12-6.03 316.86-7.01 317.32-8.2L317.32-8.2 320.89-6.88Q320.08-4.96 318.68-3.55 317.28-2.15 315.51-1.23 313.74-0.32 311.75 0.12 309.76 0.56 307.8 0.56L307.8 0.56Q304.58 0.56 301.85-0.52 299.11-1.61 297.13-3.56 295.16-5.52 294.03-8.23 292.91-10.94 292.91-14.16L292.91-14.16Q292.91-17.38 294.03-20.09 295.16-22.8 297.13-24.76 299.11-26.71 301.85-27.8 304.58-28.88 307.8-28.88L307.8-28.88Q309.37-28.88 311-28.66 312.64-28.44 314.18-27.97 315.71-27.49 317.08-26.73 318.45-25.98 319.46-24.87 320.47-23.75 321.07-22.29 321.67-20.83 321.67-18.95ZM387.44-28.2L393.16-28.2 382.9-3.39Q381.14 0.85 378.98 5.02 376.82 9.18 374.31 13.01L374.31 13.01 371.09 11.06Q371.7 9.96 372.53 8.52 373.36 7.08 374.16 5.54 374.97 4 375.65 2.5 376.33 1 376.7-0.24L376.7-0.24 364.37-28.2 372.62-28.2 381-9.13 387.44-28.2ZM439.19-14.16L439.19-14.16Q439.19-11.96 438.6-10.03 438.02-8.11 436.98-6.47 435.94-4.83 434.48-3.53 433.01-2.22 431.27-1.32 429.52-0.42 427.53 0.07 425.54 0.56 423.44 0.56L423.44 0.56Q421.34 0.56 419.36 0.07 417.39-0.42 415.64-1.32 413.9-2.22 412.43-3.53 410.97-4.83 409.93-6.47 408.89-8.11 408.3-10.05 407.72-11.99 407.72-14.16L407.72-14.16Q407.72-16.33 408.3-18.27 408.89-20.21 409.93-21.85 410.97-23.49 412.43-24.79 413.9-26.1 415.64-27 417.39-27.91 419.36-28.39 421.34-28.88 423.44-28.88L423.44-28.88Q425.54-28.88 427.53-28.39 429.52-27.91 431.27-27 433.01-26.1 434.48-24.79 435.94-23.49 436.98-21.85 438.02-20.21 438.6-18.27 439.19-16.33 439.19-14.16ZM430.79-14.16L430.79-14.16Q430.79-15.33 430.66-16.64 430.52-17.94 430.2-19.2 429.89-20.46 429.34-21.62 428.79-22.78 427.98-23.65 427.18-24.51 426.05-25.04 424.93-25.56 423.44-25.56L423.44-25.56Q422.03-25.56 420.93-25.02 419.83-24.49 419.01-23.6 418.19-22.71 417.64-21.53 417.09-20.36 416.75-19.1 416.41-17.85 416.26-16.56 416.12-15.28 416.12-14.16L416.12-14.16Q416.12-13.04 416.26-11.76 416.41-10.47 416.75-9.2 417.09-7.93 417.64-6.77 418.19-5.62 419.01-4.72 419.83-3.83 420.93-3.3 422.03-2.76 423.44-2.76L423.44-2.76Q424.91-2.76 426.03-3.28 427.15-3.81 427.97-4.69 428.79-5.57 429.33-6.71 429.86-7.86 430.19-9.13 430.52-10.4 430.66-11.69 430.79-12.99 430.79-14.16ZM456.41-12.06L456.41-12.06Q456.41-13.99 456.74-16.06 457.07-18.14 457.69-20.21 458.32-22.29 459.2-24.32 460.08-26.34 461.17-28.2L461.17-28.2 467.2-28.2Q466.59-26.37 466.12-24.38 465.64-22.39 465.31-20.4 464.98-18.41 464.8-16.5 464.62-14.6 464.62-12.96L464.62-12.96Q464.62-12.01 464.7-10.93 464.79-9.84 465.01-8.75 465.23-7.67 465.63-6.67 466.03-5.66 466.67-4.9 467.3-4.13 468.22-3.67 469.13-3.22 470.38-3.22L470.38-3.22Q471.6-3.22 472.56-3.77 473.53-4.32 474.26-5.21 474.99-6.1 475.5-7.25 476.02-8.4 476.35-9.61 476.68-10.82 476.84-11.98 476.99-13.13 476.99-14.06L476.99-14.06 476.99-28.2 485.25-28.2 485.25 0 482.07 0 478.29-6.57Q477.58-4.93 476.57-3.6 475.55-2.27 474.26-1.32 472.97-0.37 471.39 0.15 469.82 0.66 467.99 0.66L467.99 0.66Q465.06 0.66 462.88-0.29 460.71-1.25 459.27-2.93 457.83-4.61 457.12-6.95 456.41-9.28 456.41-12.06ZM557.2-25.71L557.2-25.71 552.56-18.02Q552.26-18.99 551.8-20.21 551.34-21.44 550.65-22.5 549.97-23.56 549.02-24.28 548.06-25 546.82-25L546.82-25Q545.67-25 544.83-24.41 543.99-23.83 543.4-22.89 542.82-21.95 542.44-20.76 542.06-19.58 541.85-18.37 541.64-17.16 541.57-16.05 541.5-14.94 541.5-14.14L541.5-14.14 541.5 0 533.22 0 533.22-28.2 536.39-28.2 539.74-21.63Q540.42-23.22 541.3-24.55 542.18-25.88 543.33-26.84 544.48-27.81 545.93-28.34 547.38-28.88 549.21-28.88L549.21-28.88Q550.16-28.88 551.34-28.72 552.51-28.56 553.63-28.19 554.75-27.81 555.71-27.2 556.66-26.59 557.2-25.71ZM582.77-35.01L582.77-35.01Q582.77-34.08 582.42-33.25 582.06-32.42 581.45-31.81 580.84-31.2 580.01-30.85 579.18-30.49 578.25-30.49L578.25-30.49Q577.32-30.49 576.51-30.85 575.69-31.2 575.08-31.81 574.47-32.42 574.11-33.25 573.76-34.08 573.76-35.01L573.76-35.01Q573.76-35.94 574.11-36.76 574.47-37.57 575.08-38.18 575.69-38.79 576.51-39.15 577.32-39.5 578.25-39.5L578.25-39.5Q579.18-39.5 580.01-39.15 580.84-38.79 581.45-38.18 582.06-37.57 582.42-36.76 582.77-35.94 582.77-35.01ZM582.4-28.17L582.4 0 574.13 0 574.13-28.17 582.4-28.17ZM628.8-21.22L628.8-21.22 625.24-19.8Q624.38-22.49 622.38-23.93 620.38-25.37 617.57-25.37L617.57-25.37Q616.06-25.37 614.87-24.89 613.69-24.41 612.8-23.58 611.91-22.75 611.29-21.66 610.66-20.56 610.27-19.31 609.88-18.07 609.71-16.74 609.54-15.41 609.54-14.16L609.54-14.16Q609.54-12.82 609.69-11.45 609.83-10.08 610.19-8.83 610.54-7.57 611.13-6.48 611.71-5.4 612.6-4.59 613.49-3.78 614.73-3.32 615.96-2.86 617.57-2.86L617.57-2.86Q618.87-2.86 620.04-3.25 621.21-3.64 622.19-4.35 623.16-5.05 623.92-6.03 624.68-7.01 625.12-8.2L625.12-8.2 628.7-6.88Q627.9-4.96 626.57-3.55 625.24-2.15 623.55-1.23 621.87-0.32 619.94 0.12 618.01 0.56 616.03 0.56L616.03 0.56Q612.84 0.56 610.1-0.52 607.37-1.61 605.38-3.58 603.39-5.54 602.26-8.24 601.14-10.94 601.14-14.16L601.14-14.16Q601.14-17.41 602.25-20.12 603.36-22.83 605.34-24.78 607.32-26.73 610.05-27.81 612.79-28.88 616.03-28.88L616.03-28.88Q618.08-28.88 620.04-28.43 621.99-27.98 623.66-27.04 625.34-26.1 626.67-24.66 628-23.22 628.8-21.22ZM675.98-16.16L675.98-16.16Q675.98-13.31 675.29-10.21 674.59-7.1 673.35-4.13 672.1-1.15 670.37 1.48 668.63 4.1 666.56 6.01L666.56 6.01 663.46 4.32Q664.12 3.1 664.7 1.59 665.29 0.07 665.77-1.62 666.24-3.32 666.62-5.13 667-6.93 667.25-8.7 667.51-10.47 667.65-12.15 667.78-13.82 667.78-15.26L667.78-15.26Q667.78-16.21 667.71-17.3 667.63-18.38 667.4-19.47 667.17-20.56 666.78-21.56 666.39-22.56 665.74-23.32 665.09-24.07 664.18-24.54 663.26-25 662.02-25L662.02-25Q660.8-25 659.85-24.45 658.89-23.9 658.16-23.01 657.43-22.12 656.9-20.97 656.38-19.82 656.05-18.62 655.72-17.41 655.57-16.24 655.43-15.06 655.43-14.14L655.43-14.14 655.43 0 647.15 0 647.15-38.57 655.4-38.57 655.4-24.05Q656.99-26.37 659.3-27.62 661.6-28.88 664.41-28.88L664.41-28.88Q667.34-28.88 669.51-27.93 671.69-26.98 673.13-25.28 674.57-23.58 675.27-21.25 675.98-18.92 675.98-16.16Z" opacity="1" transform="matrix(1,0,0,1,0,0)" fill="#efe5e5" class="slogan-text-1" data-fill-palette-color="quaternary" id="text-1"></path></svg></g></svg></g></svg></g></svg></g><g transform="matrix(1,0,0,1,53.49664139278018,0)"><svg viewBox="0 0 106.16515844159673 90.65315785946039" height="90.65315785946039" width="106.16515844159673"><g><svg xmlns="http://www.w3.org/2000/svg" xmlns:xlink="http://www.w3.org/1999/xlink" version="1.1" x="0" y="0" viewBox="4.9994934468737355 11.574786685882255 90.00060243389748 76.85043699506143" enable-background="new 0 0 100 100" xml:space="preserve" height="90.65315785946039" width="106.16515844159673" class="icon-icon-0" data-fill-palette-color="quaternary" id="icon-0"><g fill="#efe5e5" data-fill-palette-color="quaternary"><path fill="#efe5e5" d="M94.164 29.039c-6.042 1.936-9.062 3.312-16.509 5.535-1.108 0.33-2.386 1.596-2.82 2.808-2.92 8.149-4.424 11.27-8.396 22.047-0.592 1.604-0.387 2.75 0.533 2.371 6.184-2.548 10.215-5.27 16.792-8.091 0.979-0.42 2.345-2.211 2.974-3.751 4.227-10.346 4.087-8.847 7.934-18.569C95.244 29.942 95.064 28.751 94.164 29.039zM82.999 43.293c-0.504 1.122-1.773 2.435-2.826 2.882-1.052 0.447-1.466-0.209-0.936-1.41 0.531-1.202 1.797-2.457 2.822-2.826C83.085 41.568 83.504 42.17 82.999 43.293z" data-fill-palette-color="quaternary"></path><path fill="#efe5e5" d="M52.86 17.004c8.093 6.658 12.36 9.313 19.977 15.319 1.134 0.895 3.555 1.16 5.153 0.653 10.738-3.4 10.689-3.82 16.224-5.41 0.824-0.236 0.436-1.197-0.852-2.082-8.647-5.938-10.694-7.598-18.335-12.794-1.137-0.773-3.104-1.261-4.216-1.076-7.479 1.236-8.848 1.276-17.639 3.055C51.864 14.934 51.655 16.013 52.86 17.004zM83.483 22.653c0.83-0.261 2.509 0.185 3.763 1.032 1.254 0.849 1.653 1.784 0.862 2.048s-2.514-0.235-3.808-1.087C83.006 23.796 82.651 22.913 83.483 22.653zM79.174 24.074c0.888-0.301 2.584 0.146 3.891 1.003 1.306 0.855 1.76 1.808 0.886 2.122-0.873 0.315-2.759-0.128-4.079-0.998C78.551 25.332 78.288 24.374 79.174 24.074zM78.569 29.09c-1.267 0.431-3.512 0.085-4.795-0.822s-1.165-2.007 0.065-2.409c1.232-0.403 3.145 0.011 4.462 0.889C79.619 27.626 79.836 28.659 78.569 29.09zM71.112 14.403c1.027-0.193 2.898 0.307 4.072 1.101 1.175 0.793 1.277 1.607 0.317 1.829-0.961 0.223-2.701-0.248-3.943-1.072C70.316 15.438 70.084 14.596 71.112 14.403zM65.958 15.396c1.009-0.2 2.858 0.346 4.125 1.184s1.526 1.685 0.559 1.926c-0.966 0.242-2.849-0.238-4.157-1.118C65.177 16.507 64.95 15.596 65.958 15.396zM60.322 16.57c1.218-0.266 3.191 0.299 4.507 1.198 1.317 0.899 1.501 1.837 0.276 2.158-1.224 0.319-3.407-0.137-4.719-1.091C59.076 17.882 59.105 16.836 60.322 16.57z" data-fill-palette-color="quaternary"></path><path fill="#efe5e5" d="M57.965 38.688c-0.37-1.613-1.899-2.085-3.281-1.189-9.287 6.012-10.237 7.304-20.638 13.92-1.549 0.985-2.567 3.248-2.062 4.942 3.392 11.4 5.324 16.63 8.808 29.233 0.519 1.878 2.667 2.031 4.521 0.497 12.455-10.309 13.442-11.675 18.545-16.116 0.76-0.661 1.144-2.278 0.797-3.723C62.325 56.558 60.454 49.537 57.965 38.688zM42.104 59.327c-1.449 1.023-3.271 0.549-3.868-1.169s0.214-3.971 1.625-4.943c1.412-0.974 2.942-0.354 3.576 1.312C44.07 56.194 43.554 58.302 42.104 59.327zM48.594 77.162c-1.549 1.226-3.493 0.872-4.097-0.936-0.603-1.808 0.323-4.288 1.841-5.417 1.52-1.131 3.104-0.551 3.738 1.16C50.711 73.682 50.146 75.936 48.594 77.162zM51.987 63.262c-1.114 0.825-2.633 0.191-3.286-1.49-0.654-1.685-0.196-3.759 0.936-4.583 1.13-0.823 2.515-0.094 3.151 1.59C53.424 60.46 53.1 62.438 51.987 63.262zM54.354 50.532c-1.127 0.787-2.503 0.049-3.102-1.622s-0.144-3.663 1.065-4.499c1.208-0.835 2.671-0.179 3.188 1.542C56.021 47.673 55.479 49.745 54.354 50.532zM60.222 67.831c-0.89 0.702-2.102 0.019-2.692-1.614s-0.285-3.575 0.691-4.281c0.975-0.706 2.207 0.1 2.71 1.736C61.435 65.309 61.11 67.13 60.222 67.831z" data-fill-palette-color="quaternary"></path><path fill="#efe5e5" d="M6.628 48.735c7.846 1.066 10.187 1.539 19.906 2.905 1.446 0.203 3.961-0.416 5.428-1.338 9.859-6.188 13.689-8.025 21.955-14.055 1.23-0.896 0.789-1.708-0.741-1.759-10.285-0.345-10.064-0.502-20.163-1.077-1.502-0.085-3.986 0.508-5.223 1.262-8.309 5.062-10.343 5.808-20.471 12.008C5.812 47.604 5.46 48.576 6.628 48.735zM40.918 38.174c1.288-0.817 3.315-1.449 4.655-1.368 1.339 0.081 1.526 0.87 0.24 1.726-1.285 0.854-3.554 1.425-4.897 1.307S39.631 38.991 40.918 38.174zM28.245 41.496c1.322-0.742 3.292-1.228 4.431-1.098s1.042 0.854-0.281 1.625c-1.321 0.771-3.38 1.278-4.519 1.119C26.736 42.984 26.925 42.236 28.245 41.496zM15.044 44.644c1.456-0.834 3.59-1.318 4.787-1.151 1.198 0.166 0.993 0.931-0.488 1.773s-3.687 1.447-4.862 1.273C13.308 46.365 13.588 45.479 15.044 44.644z" data-fill-palette-color="quaternary"></path><path fill="#efe5e5" d="M71.563 33.21c-7.945-5.849-10.553-8.545-19.583-14.896-1.344-0.945-2.896-0.183-3.304 1.436-1.696 6.725-2.249 8.919-3.207 12.182 1.906 0.101 4.198 0.197 7.781 0.317 2.57 0.087 3.301 1.572 3.497 2.207 0.029 0.095 0.062 0.247 0.086 0.426 1.624 0.299 2.912 1.551 3.314 3.306 1.529 6.667 2.798 11.773 4.141 17.181 0.277 1.118 0.558 2.246 0.839 3.386 0.05-0.108 0.104-0.213 0.141-0.332 3.361-10.9 3.835-10.296 7.453-20.633C73.26 36.251 72.746 34.08 71.563 33.21zM63.781 40.616c-1.228 0.084-2.644-1.039-3.137-2.473-0.494-1.434 0.112-2.713 1.341-2.919 1.229-0.207 2.598 0.859 3.093 2.415C65.571 39.196 65.009 40.532 63.781 40.616z" data-fill-palette-color="quaternary"></path><path fill="#efe5e5" d="M30.338 57.876c-0.6-2.057-2.577-4.145-4.096-4.36-10.205-1.446-9.529-1.479-19.309-2.907-1.455-0.212-2.335 1.133-1.751 2.89 3.919 11.814 5.118 14.764 8.455 25.114 0.497 1.541 2.084 3.175 3.428 3.551 9.028 2.528 11.395 3.695 20.31 6.2 1.327 0.373 2.032-1.005 1.51-2.864C35.382 73.009 34.368 71.705 30.338 57.876zM14.398 62.693c-1.26-0.27-2.822-1.789-3.367-3.482-0.545-1.695 0.141-2.968 1.389-2.731 1.25 0.236 2.629 1.936 3.184 3.664C16.157 61.87 15.659 62.965 14.398 62.693zM19.47 78.604c-1.289-0.341-2.812-1.939-3.298-3.486-0.485-1.547 0.252-2.504 1.529-2.2 1.277 0.303 2.636 1.771 3.132 3.354C21.33 77.854 20.759 78.944 19.47 78.604zM26.291 65.355c-1.284-0.271-2.689-1.818-3.296-3.613-0.605-1.797-0.203-3.222 1.08-2.984 1.285 0.237 2.998 2.09 3.604 3.92C28.283 64.506 27.576 65.627 26.291 65.355zM32.029 82.057c-1.285-0.339-2.731-2.054-3.281-3.71-0.551-1.655-0.021-2.684 1.261-2.382 1.284 0.302 2.854 1.841 3.405 3.531C33.966 81.187 33.313 82.395 32.029 82.057z" data-fill-palette-color="quaternary"></path></g></svg></g></svg></g><g></g></svg></g></svg></g></svg></g></svg></g><defs></defs></svg><rect width="342.8515585177538" height="342.8515585177538" fill="none" stroke="none" visibility="hidden"></rect></g></svg></g></svg>